<?xml version='1.0' encoding='utf-8'?>
<svg xmlns="http://www.w3.org/2000/svg" enable-background="new 0 0 313.082 408.542" viewBox="0 0 313.08 408.54"> <path d="m3.121,162.183c-.896,8.402 5.5,6.975 10.175,3.392 9.554-7.324 19.75-13.81 29.444-20.973 3.143-2.322 12.446-6.901 13.697-10.502 .494-1.422-1.656-7.589-3.616-6.318-13.084,8.482-26.169,16.965-39.254,25.447l-2.577-63.221c8.645,1.469 15.203,6.773 22.52,11.125 4.141,2.463 11.857,8.691 13.074,1.292 .637-3.868 2.56-11.806-4.527-11.06-3.421.36-.49,3.736-5.055,1.98-2.42-.931-4.697-2.123-6.954-3.387-3.178-1.779-6.219-3.785-9.427-5.512-2.996-1.613-6.526-3.548-9.882-4.197-4.635-.896-8.015-2.784-8.503,2.836-.725,8.344.693,16.732 1.356,25.038 1.452,18.167 1.042,35.907-.471,54.06" fill="#a2b89c" fill-rule="evenodd"/> <path d="m24.691,373.145c1.801,9.992 18.811,7.867 26.319,7.867 4.302,0 11.157,1.616 14.381-1.764 3.023-3.169 4.185-11.676 5.698-15.873 7.405-20.543 15-41.005 23.081-61.293 14.679-36.854 32.369-72.133 50.089-107.569 1.354-2.707 6.394-12.671-.996-13.337-3.594-.324-12.658,19.844-14.69,23.673-9.9,18.651-19.193,37.613-27.831,56.885-7.938,17.71-15.672,35.304-22.563,53.445l-16.381,43.122-4.703,12.382c-1.049,2.762-5.543,1.417-8.161,1.44-4.691.041-21.816-2.089-24.243,1.022" fill="#a2b89c" fill-rule="evenodd"/> <path d="m42.871 362.02c10.152 13.952 18.542-19.335 20.698-24.403 11.282-26.536 22.564-53.071 33.847-79.606 6.228-14.648 10.671-30.121 17.007-44.686 2.655-6.104 11.607-18.574 9.306-25.637-2.442-7.495-6.274-1.561-8.073 2.035-14.608 29.213-24.907 60.309-38.058 90.159-6.36 14.437-12.5 28.95-18.788 43.416-2.851 6.557-5.889 13.054-8.669 19.639-2.039 4.831-8.18 14.424-7.27 19.083" fill="#a2b89c" fill-rule="evenodd"/> <path d="m54.132,72.779 4.607,25.563c.232,1.288.229,5.689 1.498,6.454 1.129.681 3.424.003 3.345-1.32-.25-4.178-3.694-19.118-1.31-22.286 2.072-2.754 9.848-1.324 13.05-1.41 2.67-.071 33.341,1.938 21.68-6.798-3.984-2.984-12.118-1.187-16.729-1.202l-26.006-.087c.039.376-.154,1.228-.135,1.086" fill="#a2b89c" fill-rule="evenodd"/> <path d="m57.93,151.058c.248,4.777.17,9.574 1.357,14.245 1.817,7.152 3.904,7.882 10.959,8.748 9.734,1.195 19.592,1.292 29.386,1.292 19.502,0 39.029-.69 58.526-1.155 21.408-.511 42.833.359 64.226,1.141 10.212.374 20.429.862 30.635,1.366 7.145.353 5.133-6.807 5.834-11.391 1.218-7.963.587-17.875.401-26.597-.093-4.359.388-9.566-5.218-10.372-5.02-.721-2.295,19.056-2.248,23.21 .025,2.167-2.119,1.541-2.433,2.634-.895,3.121.442,8.533.814,12.21-37.98.703-75.942-.791-113.925-.442-18.001.165-35.899.843-53.894.849-4.17.001-8.181.327-12.315.845-2.04.255-4.605-12.467-5.29-14.756-.843-2.816-5.286-4.67-6.815-1.827" fill="#a2b89c" fill-rule="evenodd"/> <path d="m76.517,91.907c-.615,5.423 7.315,4.08 11.108,4.313 5.45.335 10.924.767 16.385.85 11.141.169 22.268.324 33.409.155 20.82-.314 41.606-.298 62.417-.298 10.41,0 20.689-.199 31.038-1.417 5.629-.662 12.899-2.1 7.627-8.69-2.473-3.09-7.279-1.665-11.051-1.644-14.425.083-28.851.165-43.276.247-18.396.105-36.79.092-55.181.566-14.156.365-28.312.73-42.468,1.096-4.226.11-10.989-.875-10.008,4.822" fill="#a2b89c" fill-rule="evenodd"/> <path d="m76.109,26.109c-.169,12.204 3.242,34.402 18.723,36.63-9.447-14.601-19.861-36.43-1.222-49.111 14.458-9.836 43.351-7.979 51.77,9.692 4.053,8.507 2.049,17.164-1.663,25.419-1.414,3.144-3.143,6.254-5.065,9.115-1.552,2.311-6.39,5.875-7.055,8.275-.926,3.345 2.872,7.803 6.24,7.055 6.065-1.347 12.708-16.545 14.5-21.77 4.102-11.959 5.085-22.172-2.168-32.808-6.177-9.058-16.251-16.117-27.05-17.868-10.459-1.697-23.07-.614-32.45,4.702-9.171,5.198-11.499,11.654-14.56,20.669" fill="#a2b89c" fill-rule="evenodd"/> <path d="m157.508,39.133c1.862,8.796 3.452,19.031 9.653,26.003 8.568,9.634 4.047-2.383 2.112-7.48-5.921-15.601-3.951-40.08 15.635-45.189 15.661-4.085 39.999,7.277 36.665,26.603-1.651,9.573-5.196,18.796-12.194,25.795-2.365,2.365-5.962,4.052-2.352,6.761 2.604,1.954 5.65.951 8.275-.611 18.449-10.978 16.761-44.644 2.17-57.522-9.116-8.046-25.684-11.211-37.172-7.868-15.172,4.415-19.884,20.004-22.792,33.508" fill="#a2b89c" fill-rule="evenodd"/> <path d="m184.235,183.211c13.34,40.333 29.805,79.515 43.795,119.62 3.252,9.322 5.799,18.916 8.261,28.471 2.36,9.162 2.849,20.189 7.027,28.546 1.405,2.811 2.566,5.767 3.731,8.683 .527,1.322 1.764,2.416 1.764,3.892 0,1.19-.73,5.033 0,6.014 2.602,3.495 14.741,1.975 19.196,1.83 4.321-.141 24.938.083 23.268-6.852-1.615-6.702-18.455-3.164-22.084-3.069-1.64.043-13.104,1.444-13.766-.017-2.384-5.26-4.54-10.438-6.514-15.864-3.441-9.462-5.531-19.535-7.74-29.339-8.775-38.936-24.038-74.134-38.925-110.933-3.112-7.691-5.7-15.882-9.897-23.079-1.425-2.442-5.942-11.88-8.116-7.903" fill="#a2b89c" fill-rule="evenodd"/> <path d="m201.19 191.76c16.91 38.127 28.873 77.623 40.437 117.63 3.217 11.131 6.446 22.259 9.687 33.383 1.869 6.417 2.252 17.751 9.637 17.751 9.48 0-4.938-35.986-6.573-41.819-8.088-28.838-16.146-57.954-25.511-86.384-4.126-12.524-10.855-23.913-15.911-36.043-1.609-3.859-8.594-11.034-11.766-4.522" fill="#a2b89c" fill-rule="evenodd"/> <path d="m218.695,73.05c4.619,10.715 29.756-2.438 31.881,7.123 1.337,6.014-1.288,8.442 2.85,13.635 .742.931 2.05,1.402 2.713,2.306 1.315,1.794 1.062,4.556 4.639,5.809 4.008,1.403 7.999,1.36 12.18,1.723 4.729.412 7.385,2.544 11.537,4.136 2.69,1.031 3.314,1.094 6.48.552 7.097-1.214 10.632-4.496 12.141,2.945 .744,3.667.8,11.569 3.356,14.275 1.159,1.228 6.903,3.418 6.599.321-1.214-12.363-2.429-24.727-3.644-37.09-.266-2.703-4.124-2.567-6.145-1.761-2.223.888 1.229,9.959-.474,11.396-.612.517-4.731-.085-5.698,0-5.992.526-10.575,1.375-16.717.095-7.365-1.535-14.539-4.695-22.22-3.623 .207-3.728 3.309-20.622.519-22.435-6.051-3.932-13.355-3.084-20.225-2.593-3.12.223-19.779-1.102-19.772,3.186" fill="#a2b89c" fill-rule="evenodd"/> <path d="m258.04 117.14c1.944 5.02 5.438 5.426 10.346 5.403 4.028-0.019 26.357 3.468 26.013-3.504-0.399-8.057-33.407-4.346-36.359-1.899" fill="#a2b89c" fill-rule="evenodd"/> <path d="m261.293,206.953c-.052.61.159,1.245-.135,1.899 2.186-2.378 3.153-4.789 3.392-8.004-1.255,1.64-3.034,4.145-3.257,6.105" fill="#a2b89c" fill-rule="evenodd"/> <path d="m62.679 105.07 6.369 65.317c0.106 1.092 52.458 0.733 55.9 0.776l88.995 1.118c2.94 0.037 14.643 2.103 17.098 0.215 1.214-0.934 1.475-7.711 1.748-9.138l4.31-22.53c2.141-11.196 4.282-22.392 6.424-33.587l-153.68-1.73c-8.805-0.098-18.636 0.666-27.168-0.441" fill="#f5cb24" fill-rule="evenodd"/> <path d="m1.085,166.389c-.932,8.286 5.496,6.979 10.175,3.392 9.549-7.32 19.808-13.604 29.344-20.973 3.126-2.416 12.541-6.861 13.797-10.501 .515-1.493-1.752-7.527-3.616-6.319l-39.254,25.448c-.859-21.074-1.718-42.147-2.578-63.221 8.64,1.468 15.211,6.766 22.52,11.125 4.143,2.471 11.86,8.673 13.075,1.291 .636-3.869 2.559-11.805-4.527-11.059-3.421.36-.49,3.736-5.055,1.979-2.42-.931-4.697-2.122-6.954-3.387-3.177-1.779-6.219-3.785-9.427-5.512-2.996-1.613-6.525-3.548-9.882-4.197-4.635-.897-8.015-2.785-8.503,2.835-.725,8.345.693,16.733 1.356,25.038 1.452,18.155 1.044,35.915-.471,54.061" fill-rule="evenodd"/> <path d="m22.656,377.35c1.799,9.992 18.81,7.869 26.319,7.869 4.302,0 11.157,1.614 14.381-1.766 3.023-3.169 4.185-11.674 5.698-15.871 7.406-20.544 15.001-41.006 23.081-61.295 14.708-36.932 33.295-71.639 50.068-107.568 1.267-2.714 6.479-12.682-.976-13.338-3.538-.311-12.681,19.734-14.69,23.567-9.821,18.731-19.177,37.688-27.831,56.991-7.94,17.71-15.672,35.304-22.563,53.445l-16.381,43.123-4.704,12.382c-1.049,2.762-5.543,1.417-8.161,1.439-4.69.042-21.812-2.09-24.241,1.022" fill-rule="evenodd"/> <path d="m40.836 366.09c9.462 14.787 18.809-19.888 20.665-24.265 11.25-26.536 22.501-53.071 33.751-79.606 6.223-14.676 10.799-30.118 17.135-44.688 2.641-6.072 11.604-18.634 9.306-25.636-2.463-7.504-6.275-1.558-8.072 2.035-14.616 29.229-24.904 60.297-38.058 90.16-6.36 14.439-12.496 28.946-18.789 43.415-2.855 6.563-5.771 13.099-8.679 19.639-1.72 3.871-8.698 15.772-7.259 18.946" fill-rule="evenodd"/> <path d="m52.097,76.984 4.607,25.564c.232,1.288.228,5.688 1.498,6.454 1.126.679 3.423-.022 3.345-1.319-.25-4.168-3.693-19.132-1.311-22.287 2.072-2.743 9.722-1.323 12.961-1.41 2.675-.071 33.434,1.953 21.77-6.798-3.98-2.986-12.121-1.187-16.729-1.202l-26.006-.087c.038.375-.154,1.228-.135,1.085" fill-rule="evenodd"/> <path d="m55.896,155.264c.243,4.71.062,9.631 1.22,14.245 1.771,7.057 4.136,7.894 10.969,8.748 9.187,1.149 18.533,1.291 27.779,1.291 19.584,0 39.149-1.002 58.726-1.238 21.587-.26 43.149.407 64.72,1.187 9.979.36 19.966.825 29.94,1.318 8.96.442 6.13-4.441 7.296-11.17 1.273-7.349.814-16.877.674-25.127-.066-3.902 1.061-11.215-4.744-11.91-6.041-.723-2.884,17.603-2.857,22.289 .014,2.48-1.556,2.035-1.891,3.353-.789,3.102-.095,8.268.271,12.345-37.979.71-75.942-.791-113.924-.442-17.956.165-35.809.843-53.759.85-4.17.001-8.182.328-12.316.844-2.041.255-4.605-12.466-5.29-14.756-.842-2.817-5.286-4.67-6.814-1.827" fill-rule="evenodd"/> <path d="m74.482,96.113c-.615,5.423 7.315,4.08 11.108,4.313 5.449.335 10.924.768 16.384.85 11.141.168 22.268.323 33.409.154 20.82-.315 41.606-.298 62.417-.298 10.408,0 20.69-.199 31.038-1.417 5.583-.657 12.902-2.113 7.628-8.69-2.408-3.002-5.985-1.803-9.873-1.775l-42.507.303c-18.53.132-37.063.123-55.587.602l-42.623,1.1c-4.332.112-12.211-1.427-11.394,4.858" fill-rule="evenodd"/> <path d="m74.074,30.315c-.173,12.403 3.188,34.001 18.586,36.63-8.738-14.889-20.092-36.145-1.22-49.111 14.456-9.933 43.503-7.954 51.905,9.692 4.051,8.509 2.05,17.163-1.664,25.42-1.398,3.11-3.172,6.277-5.065,9.114-1.553,2.328-6.443,5.933-7.055,8.276-.959,3.672 3.069,7.987 6.648,6.919 7.133-2.127 13.097-18.733 15.211-24.899 3.844-11.212 3.2-21.906-4.549-31.021-7.607-8.949-15.817-14.772-27.515-16.67-19.967-3.24-40.912,5.525-45.282,25.65" fill-rule="evenodd"/> <path d="m155.473,43.339c1.871,8.836 3.426,19.003 9.653,26.003 8.627,9.698 3.843-2.399 2.091-7.48-5.428-15.743-4.326-39.973 15.656-45.188 15.661-4.088 39.999,7.278 36.665,26.602-1.651,9.572-5.195,18.798-12.194,25.795-2.367,2.366-5.959,4.05-2.352,6.761 2.602,1.956 5.651.951 8.275-.61 18.504-11.009 16.644-44.581 2.171-57.522-9.05-8.093-25.735-11.182-37.173-7.869-15.182,4.395-19.885,20.002-22.792,33.508" fill-rule="evenodd"/> <path d="m182.2,187.417c13.339,40.324 29.958,79.429 43.667,119.622 3.198,9.377 5.919,18.883 8.389,28.471 2.36,9.163 2.853,20.184 7.027,28.545 1.403,2.811 2.569,5.766 3.731,8.682 .512,1.283 1.764,2.353 1.764,3.771 0,1.203-.744,5.148 0,6.134 2.637,3.492 14.715,1.978 19.196,1.832 4.313-.141 24.929.02 23.268-6.852-1.621-6.705-18.447-3.167-22.084-3.071-1.64.043-13.103,1.444-13.765-.017-2.385-5.261-4.541-10.438-6.514-15.864-3.44-9.463-5.532-19.533-7.741-29.337-8.771-38.934-24.034-74.139-38.925-110.933-3.061-7.562-5.82-15.321-9.602-22.572-1.215-2.331-5.788-12.391-8.411-8.411" fill-rule="evenodd"/> <path d="m199.16 195.96c16.902 38.107 28.877 77.642 40.437 117.64 3.217 11.131 6.446 22.258 9.687 33.383 1.865 6.402 2.254 17.751 9.638 17.751 9.456 0-4.946-36.016-6.574-41.821-8.106-28.896-15.569-58.708-25.707-86.934-4.391-12.225-10.73-23.532-15.715-35.493-1.61-3.861-8.592-11.038-11.766-4.521" fill-rule="evenodd"/> <path d="m216.66,77.256c4.358,10.919 29.728-2.531 31.882,7.123 1.354,6.068-1.403,8.417 2.849,13.634 .763.936 2.043,1.399 2.713,2.307 1.317,1.784 1.062,4.557 4.639,5.809 3.968,1.388 8.026,1.362 12.18,1.724 4.725.411 7.408,2.562 11.537,4.135 2.655,1.012 3.369,1.084 6.445.553 7.08-1.223 10.534-4.473 12.04,2.945 .767,3.777.838,11.571 3.492,14.275 1.134,1.155 6.772,3.466 6.463.321l-3.643-37.09c-.189-1.924-2.53-2.701-4.313-2.167-4.012,1.199-2.124,7.985-2.17,11.803-5.979-.63-11.52,1.516-17.471,1.02-9.285-.774-17.628-5.499-27.164-4.683 .186-3.32.371-6.639.557-9.959 .133-2.361 1.9-9.825.665-11.884-3.121-5.202-15.211-3.435-19.943-3.12-3.024.199-20.876-1.044-20.758,3.254" fill-rule="evenodd"/> <path d="m256 121.35c1.796 5.007 5.451 5.426 10.232 5.404 4.013-0.019 26.499 3.464 26.126-3.504-0.435-8.124-33.409-4.34-36.358-1.9" fill-rule="evenodd"/> <path d="m259.258,211.159c-.057.552.102,1.25-.135,1.898 2.185-2.378 3.153-4.789 3.392-8.003-1.294,1.645-3.036,4.157-3.257,6.105" fill-rule="evenodd"/> <path d="m14.652,150.109c-.452-9.858-.905-19.717-1.357-29.576 1.99,4.975 3.979,9.949 5.969,14.923 1.221-5.698 2.442-11.396 3.664-17.094 1.447,6.015 2.894,12.029 4.341,18.044l4.883-20.757c2.804,6.015 5.608,12.029 8.412,18.044l6.784-17.094 3.18,12.986c.242.989-7.357,4.489-8.263,4.998-9.204,5.175-18.408,10.351-27.613,15.526" fill="#f5cb24" fill-rule="evenodd"/> <path d="m74.21 248.6 28.354-60.1h-42.87c11.146 2.237 22.384 4.076 33.51 6.377l-18.994 53.723" fill-rule="evenodd"/> <path d="m91.982,357.135-15.726,42.021c-1.626,4.345-8.889,2.205-13.019,2.205h-23.487c4.125.582 42.91,7.993 43.071,7.106 3.035-16.709 8.314-34.516 9.161-51.332" fill-rule="evenodd"/> <path d="m252.88 232.73-20.894-37.85h38.801c-1.401-14.788-2.804-29.576-4.205-44.363l10.446 49.518-37.715-3.12c4.453 11.682 10.247 24.439 13.567 35.815" fill-rule="evenodd"/> <path d="m38.394,71.287-2.035-17.772 34.595,5.291c-2.442-8.095-4.883-16.189-7.325-24.284-.832,4.192-.583,16.23-5.498,15.277l-24.892-4.83 5.155,26.318" fill-rule="evenodd"/> </svg>